# xmcd
#
# Track frame offsets:
#	150
#	37802
#	59316
#	84287
#	106103
#	137547
#	164391
#	185905
#	203653
#	237765
#	254404
#	273427
#
# Disc length: 3912 seconds
#
# Revision: 0
# Processed by: cddbd v1.5.2PL0 Copyright (c) Steve Scherf et al.
# Submitted via: EasyCDDAExtractor 9.0.0.1
#
DISCID=9a0f460c
DTITLE=คาราบาว - คอนเสิร์ต ทุ่งฝันตะวันรอน
DYEAR=2006
DGENRE=Country
TTITLE0=คอริดอร์
TTITLE1=ลุงฟาง
TTITLE2=คนไร้ค่า
TTITLE3=ที่สุดของคน
TTITLE4=กบฎศาสนา
TTITLE5=ทหารพระราชา
TTITLE6=ใต้ฟ้าประชาธิปไตย
TTITLE7=ทุ่งฝันตะวันรอน
TTITLE8=เดือนเพ็ญ
TTITLE9=คิดถึงบ้าน
TTITLE10=เมดเล่ย์
TTITLE11=จำปาเมืองลาว
EXTD=
EXTT0=
EXTT1=
EXTT2=
EXTT3=
EXTT4=
EXTT5=
EXTT6=
EXTT7=
EXTT8=
EXTT9=
EXTT10=
EXTT11=
PLAYORDER=
